<svg xmlns="http://www.w3.org/2000/svg" width="1400" height="520" viewBox="0 0 1400 520"><rect width="1400" height="520" fill="#f8fafc"/><text x="50" y="60" font-family="Arial" font-size="36" font-weight="700" fill="#0f172a">Azure Attack Path Investigation</text><text x="50" y="100" font-family="Arial" font-size="20" fill="#475569">Internet-exposed VM → Critical vulnerability → Managed Identity → Storage Account → Sensitive data</text><defs><marker id="arrow" markerWidth="12" markerHeight="12" refX="10" refY="6" orient="auto"><path d="M2,2 L10,6 L2,10 Z" fill="#475569"/></marker></defs><g font-family="Arial" font-size="18" font-weight="700" fill="#0f172a"><rect x="50" y="200" width="210" height="120" rx="18" fill="#dbeafe" stroke="#334155" stroke-width="2"/><text x="85" y="250">Internet</text><text x="85" y="280">Attacker</text><line x1="275" y1="260" x2="360" y2="260" stroke="#475569" stroke-width="4" marker-end="url(#arrow)"/><rect x="375" y="200" width="210" height="120" rx="18" fill="#e0f2fe" stroke="#334155" stroke-width="2"/><text x="405" y="250">Public</text><text x="405" y="280">Azure VM</text><line x1="600" y1="260" x2="685" y2="260" stroke="#475569" stroke-width="4" marker-end="url(#arrow)"/><rect x="700" y="200" width="210" height="120" rx="18" fill="#fee2e2" stroke="#334155" stroke-width="2"/><text x="725" y="250">Critical</text><text x="725" y="280">Vulnerability</text><line x1="925" y1="260" x2="1010" y2="260" stroke="#475569" stroke-width="4" marker-end="url(#arrow)"/><rect x="1025" y="200" width="210" height="120" rx="18" fill="#ede9fe" stroke="#334155" stroke-width="2"/><text x="1050" y="250">Managed</text><text x="1050" y="280">Identity</text><line x1="1250" y1="260" x2="1310" y2="260" stroke="#475569" stroke-width="4" marker-end="url(#arrow)"/><rect x="1070" y="360" width="260" height="100" rx="18" fill="#dcfce7" stroke="#334155" stroke-width="2"/><text x="1100" y="405">Storage Account</text><text x="1100" y="435">Sensitive data</text></g></svg>